<?xml version="1.0" encoding="utf-8"?>
<!-- Generator: Adobe Illustrator 22.1.0, SVG Export Plug-In . SVG Version: 6.00 Build 0)  -->
<svg version="1.1" xmlns="http://www.w3.org/2000/svg" xmlns:xlink="http://www.w3.org/1999/xlink" x="0px" y="0px"
	 viewBox="0 0 353.2 52.1" style="enable-background:new 0 0 353.2 52.1;" xml:space="preserve">
<style type="text/css">
	.st0{display:none;}
	.st1{display:inline;}
	.st2{fill:#49CBA4;}
	.st3{fill:#202E3D;}
	.st4{font-family:'Interstate-Regular';}
	.st5{font-size:56.5532px;}
	.st6{letter-spacing:-2;}
	.st7{fill:#FFFFFF;}
</style>
<g id="Layer_1" class="st0">
	<g>
		<g class="st1">
			<path class="st2" d="M78.3,4.6c-2.6,0-5.1,1.1-6.9,3l-9.3,10c-1.2-3.9-4.8-6.7-9-6.7H38.4c-2,0-4-0.7-5.5-2.1
				c-8.2-7.3-20.6-7.3-29-0.2c-1.7-2.4-4.5-4-7.7-4h-13C-18.6,4.6-20,6-20,7.8v37.9c0,1.7,1.4,3.2,3.2,3.2h13c2.8,0,5.4-1.3,7.1-3.2
				l1.9,0.5c6.4,1.8,13,2.7,19.6,2.7H53c6.9,0,13.5-3.3,17.7-8.8l15.2-20.2c0,0,0,0,0,0c1.2-1.6,1.9-3.6,1.9-5.7
				C87.8,8.9,83.5,4.6,78.3,4.6z M-0.6,39.3c0,1.7-1.4,3.2-3.2,3.2h-9.9V10.9h9.9c1.7,0,3.2,1.4,3.2,3.2V39.3z M80.8,16
				C80.8,16,80.8,16,80.8,16L65.7,36.2c-3,4-7.7,6.3-12.6,6.3H24.8c-6.1,0-12.1-0.8-17.9-2.5l-1.2-0.3c0-0.1,0-0.2,0-0.3V15.5
				l2.2-1.9c5.9-5.2,14.9-5.2,20.9,0c2.7,2.4,6.1,3.7,9.7,3.7H53c1.7,0,3.2,1.4,3.2,3.2s-1.4,3.2-3.2,3.2H30.6
				c-1.7,0-3.2,1.4-3.2,3.2s1.4,3.2,3.2,3.2h24.6c2.6,0,5.1-1.1,6.9-3L76,11.9c0.6-0.6,1.4-1,2.3-1c1.7,0,3.2,1.4,3.2,3.2
				C81.4,14.8,81.2,15.4,80.8,16z"/>
		</g>
	</g>
</g>
<g id="Layer_2" class="st0">
	<text transform="matrix(1 0 0 1 91.5402 6.791)" class="st3 st4 st5 st6">Segurando</text>
</g>
<g id="Layer_3">
	<g>
		<g>
			<path class="st2" d="M80.5,5.7c-2.1,0-4.2,0.9-5.7,2.5l-7.6,8.1c-1-3.1-3.9-5.4-7.4-5.4H47.9c-1.7,0-3.3-0.6-4.5-1.7
				c-6.7-5.9-16.9-6-23.6-0.2c-1.4-2-3.7-3.3-6.3-3.3H2.8c-1.4,0-2.6,1.2-2.6,2.6v30.9c0,1.4,1.2,2.6,2.6,2.6h10.7
				c2.3,0,4.4-1,5.8-2.6l1.5,0.4c5.2,1.5,10.6,2.2,16,2.2h23c5.7,0,11-2.7,14.4-7.2L86.7,18c0,0,0,0,0,0c1-1.3,1.5-3,1.5-4.6
				C88.2,9.1,84.7,5.7,80.5,5.7z M16,34c0,1.4-1.2,2.6-2.6,2.6H5.4V10.8h8.1c1.4,0,2.6,1.2,2.6,2.6V34z M82.5,14.9
				C82.5,14.9,82.5,14.9,82.5,14.9L70.1,31.4c-2.4,3.2-6.3,5.2-10.3,5.2h-23c-5,0-9.9-0.7-14.7-2l-1-0.3c0-0.1,0-0.2,0-0.3V14.6
				L23,13c4.9-4.3,12.2-4.3,17,0c2.2,1.9,5,3,7.9,3h11.9c1.4,0,2.6,1.2,2.6,2.6c0,1.4-1.2,2.6-2.6,2.6H41.5c-1.4,0-2.6,1.2-2.6,2.6
				s1.2,2.6,2.6,2.6h20.1c2.1,0,4.2-0.9,5.7-2.5l11.4-12.2c0.5-0.5,1.2-0.8,1.9-0.8c1.4,0,2.6,1.2,2.6,2.6
				C83,14,82.9,14.5,82.5,14.9z"/>
		</g>
	</g>
	<g>
		<path class="st7" d="M130.4,29.9c0,1.8-0.3,3.4-0.9,4.9c-0.6,1.5-1.5,2.7-2.7,3.8c-1.2,1.1-2.7,1.9-4.6,2.5
			c-1.8,0.6-4,0.9-6.6,0.9c-2.9,0-5.6-0.6-7.9-1.7c-2.4-1.1-4.4-2.7-6.1-4.7l4.2-4.1c1.3,1.4,2.9,2.6,4.7,3.4
			c1.8,0.8,3.7,1.3,5.6,1.3c5.5,0,8.2-1.9,8.2-5.8c0-0.8-0.2-1.4-0.5-2c-0.3-0.6-0.8-1.2-1.5-1.7c-0.7-0.5-1.6-1-2.8-1.4
			c-1.1-0.5-2.5-0.9-4.2-1.4c-2.1-0.6-3.9-1.2-5.5-1.9c-1.5-0.6-2.8-1.4-3.8-2.2c-1-0.8-1.8-1.9-2.3-3.1c-0.5-1.2-0.8-2.7-0.8-4.5
			c0-1.7,0.3-3.2,1-4.6c0.7-1.4,1.6-2.5,2.8-3.5c1.2-0.9,2.6-1.7,4.2-2.2c1.6-0.5,3.3-0.8,5.1-0.8c2.7,0,5.1,0.5,7.2,1.4
			c2.1,0.9,4,2.3,5.8,4l-4.2,4.2c-1.2-1.3-2.6-2.2-4.1-2.9s-3.2-0.9-5.1-0.9c-2.3,0-4,0.5-5.1,1.5c-1,1-1.6,2.1-1.6,3.4
			c0,0.7,0.1,1.3,0.4,1.8c0.3,0.5,0.7,1.1,1.4,1.5c0.6,0.5,1.5,0.9,2.7,1.4c1.1,0.5,2.5,0.9,4.2,1.4c2,0.6,3.7,1.2,5.3,1.9
			c1.6,0.6,2.9,1.4,4,2.3c1.1,0.9,1.9,2,2.5,3.2C130.1,26.6,130.4,28.1,130.4,29.9z"/>
		<path class="st7" d="M159,25.8c0,0.5,0,1-0.1,1.5c0,0.5-0.1,0.9-0.1,1.2h-19.6c0.2,1.4,0.5,2.7,0.9,3.7c0.5,1,1,1.9,1.7,2.5
			c0.7,0.7,1.4,1.2,2.3,1.5c0.8,0.3,1.7,0.5,2.6,0.5c1.2,0,2.4-0.2,3.4-0.6c1-0.4,2-1,3-1.8l3.4,3.7c-1.3,1.2-2.8,2.2-4.4,2.9
			c-1.6,0.7-3.6,1-5.8,1c-1.7,0-3.4-0.3-4.9-1c-1.6-0.7-2.9-1.7-4.1-3c-1.2-1.3-2.1-2.9-2.8-4.9s-1-4.1-1-6.6c0-2.5,0.3-4.8,1-6.7
			c0.6-1.9,1.5-3.5,2.7-4.8c1.1-1.3,2.5-2.3,4.1-3c1.6-0.7,3.4-1,5.3-1c2.1,0,3.9,0.4,5.5,1.2c1.6,0.8,2.9,1.9,3.9,3.2
			c1,1.4,1.8,2.9,2.3,4.8C158.8,21.9,159,23.8,159,25.8z M153.2,23.6c-0.1-1-0.3-2-0.5-2.9c-0.3-0.9-0.7-1.7-1.3-2.4
			c-0.6-0.7-1.3-1.2-2.1-1.6c-0.8-0.4-1.9-0.6-3.1-0.6c-2,0-3.5,0.7-4.7,2c-1.2,1.3-1.9,3.1-2.1,5.5H153.2z"/>
		<path class="st7" d="M187.1,38.4c0,2.3-0.2,4.2-0.7,5.9c-0.5,1.7-1.2,3.1-2.3,4.2c-1.1,1.1-2.5,2-4.3,2.6c-1.8,0.6-4.1,0.9-6.7,1
			l-2-4.4c2.1-0.1,3.8-0.3,5.1-0.7c1.3-0.3,2.4-0.9,3.1-1.6c0.7-0.7,1.2-1.6,1.5-2.7c0.3-1.1,0.4-2.4,0.4-3.9v-0.5
			c-1.1,1-2.3,1.8-3.5,2.5c-1.2,0.7-2.6,1-4.2,1c-1.6,0-3.1-0.3-4.5-0.9s-2.6-1.5-3.6-2.8c-1-1.3-1.8-2.9-2.4-4.9
			c-0.6-2-0.9-4.4-0.9-7.3c0-2.5,0.3-4.7,1-6.6c0.6-1.9,1.5-3.4,2.6-4.7c1.1-1.2,2.3-2.2,3.7-2.8c1.4-0.6,2.9-0.9,4.4-0.9
			c1.5,0,2.9,0.3,4.2,1c1.3,0.7,2.4,1.5,3.2,2.4v-2.8h5.8V38.4z M181.4,20.2c-0.3-0.4-0.8-0.9-1.2-1.3c-0.5-0.4-1-0.9-1.6-1.2
			c-0.6-0.4-1.3-0.7-2-0.9c-0.7-0.2-1.4-0.4-2.1-0.4c-2.1,0-3.7,0.8-4.8,2.3c-1.1,1.6-1.6,3.9-1.6,7.1c0,3.7,0.6,6.5,1.7,8.2
			c1.1,1.7,2.8,2.5,4.9,2.5c1.4,0,2.7-0.4,3.8-1.2c1.2-0.8,2.1-1.6,2.9-2.6V20.2z"/>
		<path class="st7" d="M210.7,41.2v-2.8c-0.8,1.1-1.8,2-3.1,2.6c-1.3,0.6-2.8,0.9-4.3,0.9c-3.5,0-6.1-1.1-7.9-3.3
			c-1.8-2.2-2.7-5.5-2.7-10v-17h5.8v16.8c0,3,0.5,5.1,1.6,6.3c1.1,1.2,2.6,1.8,4.5,1.8c2,0,3.5-0.7,4.5-2c1.1-1.3,1.6-3.2,1.6-5.6
			V11.5h5.8v29.7H210.7z"/>
		<path class="st7" d="M238.4,17.7c-0.6-0.3-1.3-0.6-2-0.8c-0.7-0.2-1.5-0.3-2.5-0.3c-1.8,0-3.3,0.6-4.3,1.9c-1,1.3-1.5,3.2-1.5,5.7
			v17h-5.8V11.5h5.8v2.8c0.7-1,1.6-1.8,2.8-2.5c1.2-0.7,2.5-1,4-1c1.2,0,2.2,0.1,3,0.3c0.8,0.2,1.5,0.5,2.1,0.9L238.4,17.7z"/>
		<path class="st7" d="M258.2,41.2v-2.9c-1,1-2.2,1.9-3.6,2.5c-1.4,0.7-2.9,1-4.5,1c-1.2,0-2.4-0.2-3.6-0.5
			c-1.2-0.4-2.3-0.9-3.3-1.7c-1-0.8-1.8-1.8-2.4-3.1c-0.6-1.3-0.9-2.8-0.9-4.6c0-1.7,0.3-3.1,0.9-4.3c0.6-1.2,1.4-2.2,2.5-3
			c1.1-0.8,2.3-1.4,3.7-1.8c1.4-0.4,3-0.6,4.7-0.6c2.7,0,4.9,0.4,6.6,1.1v-2.2c0-1.6-0.5-2.9-1.4-3.7c-1-0.9-2.3-1.3-4.2-1.3
			c-1.5,0-2.9,0.2-4.2,0.5c-1.2,0.3-2.4,0.8-3.6,1.4l-2.3-4.4c1.4-0.9,3-1.5,4.6-2c1.6-0.5,3.5-0.7,5.6-0.7c3.3,0,6,0.8,8.1,2.5
			c2.1,1.6,3.1,4.1,3.1,7.5v20.4H258.2z M258.2,28.6c-0.8-0.4-1.7-0.7-2.8-1c-1.1-0.2-2.4-0.3-4-0.3c-1.9,0-3.4,0.4-4.5,1.2
			c-1.1,0.8-1.6,1.9-1.6,3.2c0,1.5,0.5,2.7,1.4,3.6s2.4,1.4,4.3,1.4c1.6,0,3-0.4,4.3-1.2c1.3-0.8,2.2-1.7,2.9-2.6V28.6z"/>
		<path class="st7" d="M287.5,41.2V24.5c0-3-0.5-5.1-1.6-6.3s-2.6-1.8-4.5-1.8c-2,0-3.5,0.7-4.5,2c-1.1,1.3-1.6,3.2-1.6,5.6v17.3
			h-5.8V11.6h5.8v2.8c0.8-1.1,1.8-2,3.1-2.6c1.3-0.6,2.8-0.9,4.3-0.9c3.5,0,6.1,1.1,7.9,3.3c1.8,2.2,2.7,5.5,2.7,10v17H287.5z"/>
		<path class="st7" d="M316.7,41.2v-2.8c-1.1,1-2.3,1.8-3.5,2.5c-1.2,0.7-2.7,1-4.2,1c-1.6,0-3.1-0.3-4.5-0.9
			c-1.4-0.6-2.6-1.5-3.6-2.8c-1-1.3-1.8-2.9-2.4-4.9c-0.6-2-0.9-4.4-0.9-7.3c0-2.5,0.3-4.7,1-6.6c0.6-1.9,1.5-3.4,2.6-4.7
			c1.1-1.2,2.3-2.2,3.7-2.8c1.4-0.6,2.9-0.9,4.4-0.9c1.5,0,2.9,0.3,4.2,1c1.3,0.7,2.4,1.5,3.2,2.4V3l5.8-3v41.2H316.7z M316.8,20.2
			c-0.3-0.4-0.8-0.9-1.2-1.3c-0.5-0.4-1-0.9-1.6-1.2c-0.6-0.4-1.3-0.7-2-0.9s-1.4-0.4-2.1-0.4c-2.1,0-3.7,0.8-4.8,2.3
			c-1.1,1.6-1.6,3.9-1.6,7.1c0,3.7,0.6,6.5,1.7,8.2c1.2,1.7,2.8,2.5,4.9,2.5c1.4,0,2.7-0.4,3.8-1.2c1.2-0.8,2.1-1.6,2.9-2.6V20.2z"
			/>
		<path class="st7" d="M353.2,26.2c0,2.5-0.3,4.6-1,6.6c-0.7,1.9-1.6,3.6-2.8,4.9c-1.2,1.3-2.6,2.4-4.2,3.1c-1.6,0.7-3.4,1-5.3,1
			c-1.9,0-3.6-0.4-5.2-1.1c-1.6-0.7-3-1.8-4.1-3.1c-1.2-1.4-2.1-3-2.7-4.9c-0.7-1.9-1-4-1-6.3c0-2.4,0.3-4.6,1-6.5
			c0.7-1.9,1.6-3.6,2.8-4.9c1.2-1.3,2.6-2.4,4.2-3.1c1.6-0.7,3.3-1,5.2-1c1.9,0,3.6,0.4,5.2,1.1c1.6,0.7,3,1.8,4.2,3.1
			c1.2,1.3,2.1,2.9,2.8,4.8C352.9,21.8,353.2,23.9,353.2,26.2z M347.4,26.4c0-3.1-0.7-5.5-2-7.3c-1.3-1.8-3.2-2.7-5.6-2.7
			c-2.2,0-4,0.9-5.3,2.7c-1.3,1.8-1.9,4.2-1.9,7.1c0,3.3,0.7,5.8,2,7.5c1.4,1.7,3.2,2.6,5.4,2.6c1.1,0,2.1-0.3,3-0.8
			c0.9-0.5,1.7-1.2,2.3-2.1c0.6-0.9,1.1-1.9,1.5-3.1C347.2,29,347.4,27.8,347.4,26.4z"/>
	</g>
</g>
</svg>
